<svg xmlns="http://www.w3.org/2000/svg" viewBox="0 0 400 400" width="1400" height="1400"><style>tspan { white-space:pre }</style><path fill="#000000" d="M133.86 364.22Q113.28 364.22 95.5 360.56Q78.18 356.91 65.55 349.6Q52.92 342.29 45.43 331.33Q38.41 320.37 38.41 305.75Q38.41 291.59 46.83 279.71Q55.26 267.38 71.16 257.79L71.16 255.96Q62.27 250.48 56.19 241.35Q50.58 232.21 50.58 218.51Q50.58 205.26 58.06 194.75Q66.02 183.79 75.84 176.94L75.84 175.11Q64.15 166.43 54.79 151.36Q45.9 135.83 45.9 115.73Q45.9 96.55 53.38 81.47Q60.87 66.4 73.04 56.35Q85.67 45.85 102.05 40.82Q118.42 35.34 136.67 35.34Q146.03 35.34 154.45 37.17Q163.34 38.54 170.36 40.82L252.71 40.82L252.71 79.65L210.6 79.65Q216.21 86.04 219.96 96.09Q223.7 105.68 223.7 117.56Q223.7 136.29 216.68 150.45Q210.13 164.61 198.43 174.2Q186.74 183.79 170.83 188.82Q154.92 193.84 136.67 193.84Q129.18 193.84 121.23 192.47Q113.28 191.1 105.32 187.9Q100.17 192.47 96.9 197.04Q94.09 201.61 94.09 209.37Q94.09 218.96 102.05 224.45Q110.47 229.93 131.52 229.93L172.23 229.93Q213.88 229.93 234.93 243.17Q256.45 255.96 256.45 285.2Q256.45 301.64 247.56 316.26Q239.14 330.87 223.23 341.38Q207.32 351.88 184.4 358.28Q161.94 364.22 133.86 364.22ZM136.67 160.95Q153.05 160.95 164.75 149.53Q176.44 137.66 176.44 115.73Q176.44 94.72 164.75 83.3Q153.52 71.43 136.67 71.43Q119.83 71.43 108.13 82.85Q96.43 94.26 96.43 115.73Q96.43 137.66 108.13 149.53Q119.83 160.95 136.67 160.95ZM142.29 329.96Q170.36 329.96 187.2 319.45Q204.52 308.49 204.52 293.87Q204.52 280.63 193.76 276.06Q183.46 271.49 163.81 271.49L132.46 271.49Q113.74 271.49 101.11 268.3Q83.33 281.54 83.33 297.99Q83.33 313.06 98.77 321.74Q114.68 329.96 142.29 329.96Z" /><path fill="#16b297" d="M327.58 270.58Q312.6 270.58 302.31 260.53Q292.48 250.48 292.48 234.95Q292.48 219.42 302.31 209.37Q312.6 199.32 327.58 199.32Q342.55 199.32 352.37 209.37Q362.2 219.42 362.2 234.95Q362.2 250.48 352.37 260.53Q342.55 270.58 327.58 270.58Z" /></svg>