<svg xmlns="http://www.w3.org/2000/svg" viewBox="0 0 1500 400" width="1500" height="400">
	<style>
		tspan { white-space:pre }
	</style>
	<path id="gicma.dev " fill="#000000" d="M150.51 359.4Q136.93 359.4 125.19 356.98Q113.76 354.57 105.42 349.75Q97.08 344.92 92.14 337.69Q87.51 330.45 87.51 320.8Q87.51 311.46 93.07 303.62Q98.63 295.48 109.13 289.15L109.13 287.94Q103.26 284.32 99.25 278.29Q95.54 272.26 95.54 263.22Q95.54 254.47 100.48 247.54Q105.73 240.3 112.22 235.78L112.22 234.57Q104.5 228.84 98.32 218.89Q92.45 208.64 92.45 195.38Q92.45 182.71 97.39 172.76Q102.33 162.81 110.36 156.18Q118.7 149.25 129.51 145.93Q140.32 142.31 152.37 142.31Q158.54 142.31 164.1 143.52Q169.97 144.42 174.61 145.93L228.96 145.93L228.96 171.56L201.17 171.56Q204.87 175.78 207.34 182.41Q209.81 188.74 209.81 196.58Q209.81 208.94 205.18 218.29Q200.86 227.64 193.14 233.97Q185.42 240.3 174.91 243.62Q164.41 246.93 152.37 246.93Q147.43 246.93 142.18 246.03Q136.93 245.13 131.67 243.02Q128.28 246.03 126.12 249.05Q124.26 252.06 124.26 257.19Q124.26 263.52 129.51 267.14Q135.07 270.75 148.97 270.75L175.84 270.75Q203.33 270.75 217.23 279.5Q231.43 287.94 231.43 307.24Q231.43 318.09 225.57 327.74Q220.01 337.39 209.51 344.32Q199 351.26 183.87 355.48Q169.05 359.4 150.51 359.4ZM152.37 225.23Q163.18 225.23 170.9 217.69Q178.62 209.85 178.62 195.38Q178.62 181.51 170.9 173.97Q163.49 166.13 152.37 166.13Q141.25 166.13 133.53 173.67Q125.81 181.21 125.81 195.38Q125.81 209.85 133.53 217.69Q141.25 225.23 152.37 225.23ZM156.07 336.78Q174.61 336.78 185.72 329.85Q197.15 322.61 197.15 312.96Q197.15 304.22 190.05 301.21Q183.25 298.19 170.28 298.19L149.59 298.19Q137.23 298.19 128.89 296.08Q117.16 304.82 117.16 315.68Q117.16 325.63 127.35 331.36Q137.85 336.78 156.07 336.78ZM293.82 293.97L258.3 293.97L258.3 145.93L293.82 145.93L293.82 293.97ZM276.22 120Q266.64 120 260.47 114.57Q254.29 109.15 254.29 100.4Q254.29 91.66 260.47 86.23Q266.64 80.5 276.22 80.5Q285.79 80.5 291.97 86.23Q298.15 91.66 298.15 100.4Q298.15 109.15 291.97 114.57Q285.79 120 276.22 120ZM402.54 297.59Q387.1 297.59 373.51 292.46Q360.23 287.34 350.34 277.39Q340.46 267.44 334.9 252.96Q329.34 238.49 329.34 220.1Q329.34 201.71 335.52 187.24Q341.7 172.76 352.2 162.81Q362.7 152.86 376.29 147.74Q390.19 142.31 405.32 142.31Q420.14 142.31 430.65 147.14Q441.46 151.96 449.79 158.89L432.5 181.51Q426.32 176.38 420.14 173.67Q414.28 170.65 407.17 170.65Q388.64 170.65 377.21 184.22Q365.79 197.49 365.79 220.1Q365.79 242.41 376.9 255.98Q388.33 269.25 406.25 269.25Q415.2 269.25 422.92 265.63Q430.95 261.71 437.44 256.58L451.96 279.5Q441.15 288.54 428.17 293.07Q415.51 297.59 402.54 297.59ZM517.43 293.97L481.91 293.97L481.91 145.93L511.26 145.93L513.73 166.13L514.96 166.13Q524.54 156.18 535.66 149.25Q547.08 142.31 561.29 142.31Q577.97 142.31 587.85 149.25Q598.04 156.18 603.29 168.84Q614.1 157.39 625.84 149.85Q637.58 142.31 652.09 142.31Q676.18 142.31 687.61 157.69Q699.04 172.76 699.04 201.11L699.04 293.97L663.21 293.97L663.21 205.63Q663.21 187.24 657.34 179.7Q651.78 172.16 640.05 172.16Q625.84 172.16 608.24 190.55L608.24 293.97L572.72 293.97L572.72 205.63Q572.72 187.24 566.85 179.7Q561.29 172.16 549.25 172.16Q535.04 172.16 517.43 190.55L517.43 293.97ZM779.03 297.59Q758.96 297.59 746.6 285.83Q734.25 273.77 734.25 254.17Q734.25 242.41 739.19 233.37Q744.44 224.02 755.25 217.39Q766.37 210.75 783.05 206.23Q800.03 201.71 823.51 199.3Q823.2 193.57 821.65 188.44Q820.42 183.02 817.02 179.1Q813.93 174.87 808.68 172.76Q803.43 170.35 795.71 170.35Q784.59 170.35 773.78 174.57Q763.28 178.79 753.09 184.82L740.12 161.61Q752.78 153.77 768.53 148.04Q784.28 142.31 802.51 142.31Q830.92 142.31 844.82 158.89Q859.03 175.18 859.03 206.23L859.03 293.97L829.68 293.97L827.21 277.69L825.98 277.69Q815.79 286.13 804.05 291.86Q792.62 297.59 779.03 297.59ZM790.46 270.45Q799.73 270.45 807.14 266.23Q814.86 262.01 823.51 254.17L823.51 221.01Q808.06 222.81 797.56 225.83Q787.06 228.84 780.58 232.76Q774.09 236.38 771.31 241.21Q768.53 246.03 768.53 251.46Q768.53 261.41 774.71 265.93Q780.89 270.45 790.46 270.45Z" />
	<path id="gicma.dev " fill="#16b297" d="M921.72 297.59Q911.84 297.59 905.04 290.95Q898.56 284.32 898.56 274.07Q898.56 263.82 905.04 257.19Q911.84 250.55 921.72 250.55Q931.61 250.55 938.09 257.19Q944.58 263.82 944.58 274.07Q944.58 284.32 938.09 290.95Q931.61 297.59 921.72 297.59ZM1036.31 297.59Q1007.58 297.59 990.6 277.39Q973.92 256.88 973.92 220.1Q973.92 202.01 979.17 187.54Q984.73 173.07 993.69 163.12Q1002.64 153.17 1014.07 147.74Q1025.81 142.31 1038.16 142.31Q1051.13 142.31 1060.09 146.83Q1069.05 151.06 1078 158.59L1076.77 134.77L1076.77 81.11L1112.29 81.11L1112.29 293.97L1082.94 293.97L1080.47 277.99L1079.24 277.99Q1070.9 286.13 1059.78 291.86Q1048.66 297.59 1036.31 297.59ZM1044.96 268.94Q1061.94 268.94 1076.77 252.36L1076.77 183.32Q1068.74 176.38 1061.02 173.67Q1053.6 170.95 1045.88 170.95Q1031.06 170.95 1020.86 183.62Q1010.67 196.28 1010.67 219.8Q1010.67 243.92 1019.32 256.58Q1028.28 268.94 1044.96 268.94ZM1222.24 297.59Q1206.49 297.59 1192.9 292.46Q1179.31 287.04 1169.11 277.09Q1158.92 267.14 1153.05 252.96Q1147.49 238.49 1147.49 220.1Q1147.49 202.01 1153.36 187.54Q1159.23 173.07 1168.81 163.12Q1178.69 153.17 1191.35 147.74Q1204.02 142.31 1217.3 142.31Q1232.74 142.31 1244.47 147.44Q1256.21 152.56 1263.93 161.91Q1271.96 171.26 1275.98 184.22Q1279.99 197.19 1279.99 212.56Q1279.99 217.69 1279.38 222.21Q1279.07 226.73 1278.45 229.45L1182.09 229.45Q1184.56 249.35 1196.29 260.2Q1208.34 270.75 1226.87 270.75Q1236.75 270.75 1245.09 268.04Q1253.74 265.03 1262.08 259.9L1274.12 281.61Q1263.32 288.54 1250.03 293.07Q1236.75 297.59 1222.24 297.59ZM1181.78 205.93L1249.11 205.93Q1249.11 188.74 1241.39 179.1Q1233.97 169.15 1218.22 169.15Q1204.63 169.15 1194.44 178.49Q1184.25 187.84 1181.78 205.93ZM1389.02 293.97L1347.94 293.97L1295.13 145.93L1331.26 145.93L1355.35 222.81Q1358.44 233.67 1361.53 244.82Q1364.93 255.98 1368.02 267.44L1369.25 267.44Q1372.65 255.98 1375.74 244.82Q1378.83 233.67 1382.22 222.81L1406.31 145.93L1440.6 145.93L1389.02 293.97Z" />
</svg>
